<?xml version="1.0" encoding="UTF-8"?><svg xmlns="http://www.w3.org/2000/svg" viewBox="0 0 436.65 382.6"><defs><style>.cls-1,.cls-2,.cls-3{fill:#00732f;}.cls-1,.cls-4{mix-blend-mode:soft-light;}.cls-5,.cls-6{isolation:isolate;}.cls-7,.cls-3,.cls-8{mix-blend-mode:darken;}.cls-7,.cls-4{fill:red;}.cls-9{mix-blend-mode:multiply;}.cls-6{opacity:.8;}.cls-10{fill:#152700;}.cls-11{fill:#ff0090;}</style></defs><g class="cls-5"><g id="Objects"><g class="cls-9"><g class="cls-5"><g class="cls-5"><path class="cls-7" d="M221.31.07c29.51,2.01,110.94,37.37,134.51,88.09l-3.32-6.81c-3.44-6.05-8.34-13.95-12.24-19.72l-3.05-4.02C309.03,22.21,249.26.2,218.8,0c.75.02,1.75.02,2.51.07"/><path d="M218.8,301.04c5.67-.23,13.25-.59,18.9-1.18-3.1.37-9.54,1.15-18.9,1.18"/><path class="cls-8" d="M218.05.14c-.77,5.56,10.99,15.07,47.56,43.07,66.09,50.59,126.96,106.38,83.34,182.94l3.55-6.46c2.99-6.37,6.64-15.01,9.13-21.59,1.66-5.75,3.75-13.46,5.02-19.31,5.62-31.83-2.53-58.9-26.41-87.78C304.61,47.93,219.46.24,218.8,0c-.19.13-.56.02-.75.14"/><path class="cls-1" d="M213.01.23c-32.9,2.83-56.29,21.09,19.15,92.01,52.19,49.07,91.88,90.18,89,135.22-2.26,35.36-43.93,73.37-102.36,73.57,40.53-.47,76.89-16.67,99.76-44.45,52.57-70.07-21.49-136.04-75.58-184.2C189.04,24.36,180.91,0,218.8,0c-1.74.07-4.06.08-5.79.23"/><path class="cls-4" d="M216.58.02l-2.94.07-5.14.27c-58.38,4.61-81.27,36.91-81.98,56.19-.87,23.42,4.21,48.6,75.45,119.96,120.6,120.79,21.12,124.42,16.83,124.52,10.51-.14,36.58-2.93,51.54-25.75,23.51-41.76-16.59-82.96-51.96-119.32-46.75-48.04-74.96-77.04-74.88-109.02.06-23.05,25.95-46.57,75.3-46.94l-2.22.02"/><path class="cls-8" d="M112.38,44.09c-5.45,5.45-10.48,11.31-15.04,17.54-.57.78-1.13,1.56-1.69,2.35-44.29,69.86,16.97,125.17,76.22,178.67,46.45,41.94,47.02,56.83,46.93,58.39,2.61-.65,6.96-1.75,5.91-11.77-3.67-20.62-25.95-44.85-47.26-65.82C105.15,152.28,55.32,93.09,124.3,33.37c-4.16,3.36-8.14,6.94-11.92,10.72"/><path class="cls-3" d="M68.3,150.52c0,8.31.68,16.47,1.97,24.41.48,2.92,1.04,5.81,1.68,8.67,19.58,68.22,119.45,117.23,146.85,117.43-4-.26-6.88-.45-13.39-2.96-1.4-.59-139.37-71.88-137.05-151.92-.04,1.45-.06,2.9-.06,4.36"/><path class="cls-2" d="M112.38,256.95c5.45,5.45,11.31,10.48,17.54,15.04,1.8,1.32,3.64,2.61,5.5,3.85,33.9,21.77,66.79,25.13,83.38,25.19-49.49-1.06-93.58-29.9-111.14-49.02,1.53,1.68,3.11,3.33,4.72,4.94"/></g><g class="cls-5"><path class="cls-11" d="M356.85,90.54c-4.81-11.06-10.91-21.43-18.11-30.93l-1.53-2,3.05,4.02c3.9,5.77,8.8,13.67,12.24,19.72l3.32,6.81,1.04,2.38"/><path class="cls-11" d="M218.8,301.04c7.94,0,15.75-.62,23.36-1.8-1.34.2-3.12.44-4.46.63-5.66.48-13.22,1.05-18.9,1.18"/><path d="M361.63,198.09c-2.48,6.58-6.13,15.23-9.13,21.59l-3.55,6.46c-.88,1.49-2.09,3.45-3.01,4.92,9.25-14.57,16.06-30.85,19.86-48.25.26-1.21.61-2.82.85-4.03-1.35,5.83-3.1,13.64-5.02,19.31"/></g><g class="cls-6"><path class="cls-2" d="M216.31.03c-12.4.24-21.27,2.16-27.75,3.56l-2.67.65-4.68,1.28c-34.45,10.16-67.24,32.56-85.56,58.46.55-.79,1.12-1.57,1.69-2.35,4.57-6.23,9.6-12.09,15.04-17.54,3.78-3.78,7.76-7.36,11.92-10.72,28.37-22.53,56.76-28.55,66.09-30.53,6.77-1.23,15.19-2.77,28.41-2.84-.75,0-1.74.01-2.49.03"/><path class="cls-7" d="M211.84.53c-11.19,1.69-20.78,7.3-28.89,12.42l-1.78,1.18-3.18,2.18c-5.03,3.56-123.03,88.17-106.04,167.29-.64-2.86-1.2-5.75-1.68-8.67-1.29-7.95-1.97-16.1-1.97-24.41,0-1.46.02-2.91.06-4.36C74.93,68.51,173.76,13.83,177.96,11.54c4.21-2.15,8.97-4.59,15.94-7.07l.37-.13C206.34.31,213.54.13,218.8,0c-1.96.05-4.19.11-6.96.53"/><path class="cls-1" d="M217.91,7.25c-.8,8.92-2.01,12.23-4.94,20.23l-.66,1.63-1.25,2.98c-27.1,61.61-85.92,103.28-106.34,169.09-6.31,20.34-6.11,49.8,30.7,74.65-1.86-1.24-3.7-2.53-5.5-3.85-6.23-4.57-12.09-9.6-17.54-15.04-1.61-1.61-3.18-3.26-4.72-4.94-21.7-25.05-24.88-49.25-10.98-83.53,22.71-55.99,71.05-93.54,102.85-143Q214.8.89,218.8,0q-.41,1.63-.89,7.25"/></g></g></g><path class="cls-10" d="M6.62,376.36h14.4v5.57H0v-31.1h20.78v5.52H6.62v7.01h12.24l-.78,5.47H6.62v7.54Z"/><path class="cls-10" d="M47.04,350.83h6.96v.38l-11.38,30.72h-7.54l-11.42-30.72v-.38h7.2l8.11,24.24,8.06-24.24Z"/><path class="cls-10" d="M71.76,350.83l11.18,30.72v.38h-7.25l-2.5-7.44h-11.52l-2.45,7.44h-7.15v-.38l11.18-30.72h8.5ZM63.5,369.02h7.87l-3.98-11.86-3.89,11.86Z"/><path class="cls-10" d="M93.6,376.07h14.3v5.86h-20.93v-31.1h6.62v25.25Z"/><path class="cls-10" d="M115.63,380.85c-2.02-1.17-3.48-2.75-4.39-4.75-.91-2-1.37-4.28-1.37-6.84v-18.43h6.62v17.62c0,2.69.54,4.78,1.63,6.26,1.08,1.49,2.98,2.23,5.67,2.23s4.37-.74,5.42-2.23c1.05-1.49,1.58-3.42,1.58-5.78v-18.1h6.62v18.29c0,3.17-.61,5.75-1.82,7.75-1.22,2-2.87,3.46-4.97,4.37-2.1.91-4.52,1.37-7.27,1.37-3.14,0-5.71-.58-7.73-1.75Z"/><path class="cls-10" d="M159.21,350.83l11.18,30.72v.38h-7.25l-2.5-7.44h-11.52l-2.45,7.44h-7.15v-.38l11.18-30.72h8.5ZM150.96,369.02h7.87l-3.98-11.86-3.89,11.86Z"/><path class="cls-10" d="M191.85,376.36h14.4v5.57h-21.02v-31.1h20.78v5.52h-14.16v7.01h12.24l-.78,5.47h-11.46v7.54Z"/><path class="cls-10" d="M234.67,354.36c2.98,2.35,4.46,6.36,4.46,12.02,0,3.46-.78,6.35-2.35,8.69-1.57,2.34-3.66,4.06-6.26,5.18-2.61,1.12-5.48,1.68-8.62,1.68h-10.13v-31.1h10.37c5.38,0,9.55,1.18,12.53,3.53ZM227.17,375.28c1.64-.53,2.87-1.5,3.71-2.9.83-1.41,1.25-3.41,1.25-6,0-2.4-.38-4.3-1.13-5.71-.75-1.41-1.86-2.42-3.33-3.05-1.47-.62-3.32-.94-5.56-.94h-3.71v19.39h2.2c2.74,0,4.93-.26,6.56-.79Z"/><path class="cls-10" d="M249.45,380.85c-2.02-1.17-3.48-2.75-4.39-4.75-.91-2-1.37-4.28-1.37-6.84v-18.43h6.62v17.62c0,2.69.54,4.78,1.63,6.26,1.08,1.49,2.98,2.23,5.67,2.23s4.37-.74,5.42-2.23c1.05-1.49,1.58-3.42,1.58-5.78v-18.1h6.62v18.29c0,3.17-.61,5.75-1.82,7.75-1.22,2-2.87,3.46-4.97,4.37-2.1.91-4.52,1.37-7.27,1.37-3.14,0-5.71-.58-7.73-1.75Z"/><path class="cls-10" d="M279.38,378.26c-2.42-2.9-3.62-6.78-3.62-11.64,0-3.94.67-7.13,2.02-9.58,1.34-2.45,3.13-4.21,5.35-5.28,2.22-1.07,4.73-1.61,7.51-1.61,1.95,0,3.74.23,5.38.7s3.26,1.18,4.9,2.14l-2.56,5.04c-2.28-1.47-4.76-2.21-7.43-2.21-5.44,0-8.16,3.47-8.16,10.42,0,3.46.76,6.08,2.27,7.87,1.51,1.79,3.65,2.69,6.42,2.69,1.42,0,2.65-.18,3.72-.55,1.06-.37,2.17-.89,3.33-1.56l2.65,4.8c-1.73,1.02-3.42,1.8-5.06,2.33s-3.4.79-5.26.79c-5.22,0-9.03-1.45-11.45-4.34Z"/><path class="cls-10" d="M321.98,350.83l11.18,30.72v.38h-7.25l-2.5-7.44h-11.52l-2.45,7.44h-7.15v-.38l11.18-30.72h8.5ZM313.72,369.02h7.87l-3.98-11.86-3.89,11.86Z"/><path class="cls-10" d="M356.49,350.83v5.81h-9.89v25.3h-6.62v-25.3h-9.94v-5.81h26.45Z"/><path class="cls-10" d="M360.71,381.93v-31.1h6.62v31.1h-6.62Z"/><path class="cls-10" d="M379.6,380.54c-2.32-1.38-4.07-3.29-5.26-5.74s-1.78-5.29-1.78-8.52c0-3.58.72-6.58,2.16-9,1.44-2.42,3.35-4.21,5.74-5.38,2.38-1.17,5.03-1.75,7.94-1.75,3.33,0,6.15.69,8.47,2.06s4.06,3.29,5.23,5.74c1.17,2.45,1.75,5.29,1.75,8.52,0,3.58-.71,6.58-2.14,9-1.42,2.42-3.33,4.21-5.71,5.38s-5.03,1.75-7.94,1.75c-3.33,0-6.15-.69-8.47-2.06ZM392.9,375.76c1.33-.85,2.32-2.06,2.98-3.65.66-1.58.98-3.45.98-5.59,0-3.39-.72-6.04-2.16-7.94-1.44-1.9-3.54-2.86-6.29-2.86s-5.07.94-6.58,2.81c-1.5,1.87-2.26,4.44-2.26,7.7s.72,6.04,2.16,7.94c1.44,1.9,3.55,2.86,6.34,2.86,1.89,0,3.5-.42,4.82-1.27Z"/><path class="cls-10" d="M436.65,350.83v31.1h-7.39l-9.78-14.5c-.84-1.28-1.54-2.39-2.12-3.34-.58-.94-1.14-2.01-1.69-3.19v21.02h-6.62v-31.1h7.3l10.65,15.94c.13.19.42.63.87,1.32.45.69.86,1.34,1.23,1.94.37.61.68,1.2.94,1.78v-20.98h6.62Z"/></g></g></svg>