<?xml version="1.0" encoding="UTF-8"?><svg xmlns="http://www.w3.org/2000/svg" viewBox="0 0 300.05 301.04"><defs><style>.cls-1,.cls-2,.cls-3{fill:#00732f;}.cls-1,.cls-4{mix-blend-mode:soft-light;}.cls-5,.cls-6{isolation:isolate;}.cls-7,.cls-3,.cls-8{mix-blend-mode:darken;}.cls-7,.cls-4{fill:red;}.cls-9{mix-blend-mode:multiply;}.cls-6{opacity:.8;}.cls-10{fill:#ff0090;}</style></defs><g class="cls-5"><g id="Objects"><g class="cls-9"><g class="cls-5"><g class="cls-5"><path class="cls-7" d="M153.01.07c29.51,2.01,110.94,37.37,134.51,88.09l-3.32-6.81c-3.44-6.05-8.34-13.95-12.24-19.72l-3.05-4.02C240.74,22.21,180.96.2,150.5,0c.75.02,1.75.02,2.51.07"/><path d="M150.5,301.04c5.67-.23,13.25-.59,18.9-1.18-3.1.37-9.54,1.15-18.9,1.18"/><path class="cls-8" d="M149.75.14c-.77,5.56,10.99,15.07,47.56,43.07,66.09,50.59,126.96,106.38,83.34,182.94l3.55-6.46c2.99-6.37,6.64-15.01,9.13-21.59,1.66-5.75,3.75-13.46,5.02-19.31,5.62-31.83-2.53-58.9-26.41-87.78C236.31,47.93,151.16.24,150.5,0c-.19.13-.56.02-.75.14"/><path class="cls-1" d="M144.71.23c-32.9,2.83-56.29,21.09,19.15,92.01,52.19,49.07,91.88,90.18,89,135.22-2.26,35.36-43.93,73.37-102.36,73.57,40.53-.47,76.89-16.67,99.76-44.45,52.57-70.07-21.49-136.04-75.58-184.2C120.75,24.36,112.61,0,150.5,0c-1.74.07-4.06.08-5.79.23"/><path class="cls-4" d="M148.28.02l-2.94.07-5.14.27C81.82,4.97,58.93,37.27,58.22,56.55c-.87,23.42,4.21,48.6,75.45,119.96,120.6,120.79,21.12,124.42,16.83,124.52,10.51-.14,36.58-2.93,51.54-25.75,23.51-41.76-16.59-82.96-51.96-119.32-46.75-48.04-74.96-77.04-74.88-109.02.06-23.05,25.95-46.57,75.3-46.94l-2.22.02"/><path class="cls-8" d="M44.08,44.09c-5.45,5.45-10.48,11.31-15.04,17.54-.57.78-1.13,1.56-1.69,2.35-44.29,69.86,16.97,125.17,76.22,178.67,46.45,41.94,47.02,56.83,46.93,58.39,2.61-.65,6.96-1.75,5.91-11.77-3.67-20.62-25.95-44.85-47.26-65.82C36.85,152.28-12.98,93.09,56,33.37c-4.16,3.36-8.14,6.94-11.92,10.72"/><path class="cls-3" d="M0,150.52c0,8.31.68,16.47,1.97,24.41.48,2.92,1.04,5.81,1.68,8.67,19.58,68.22,119.45,117.23,146.85,117.43-4-.26-6.88-.45-13.39-2.96-1.4-.59-139.37-71.88-137.05-151.92-.04,1.45-.06,2.9-.06,4.36"/><path class="cls-2" d="M44.08,256.95c5.45,5.45,11.31,10.48,17.54,15.04,1.8,1.32,3.64,2.61,5.5,3.85,33.9,21.77,66.79,25.13,83.38,25.19-49.49-1.06-93.58-29.9-111.14-49.02,1.53,1.68,3.11,3.33,4.72,4.94"/></g><g class="cls-5"><path class="cls-10" d="M288.56,90.54c-4.81-11.06-10.91-21.43-18.11-30.93l-1.53-2,3.05,4.02c3.9,5.77,8.8,13.67,12.24,19.72l3.32,6.81,1.04,2.38"/><path class="cls-10" d="M150.5,301.04c7.94,0,15.75-.62,23.36-1.8-1.34.2-3.12.44-4.46.63-5.66.48-13.22,1.05-18.9,1.18"/><path d="M293.33,198.09c-2.48,6.58-6.13,15.23-9.13,21.59l-3.55,6.46c-.88,1.49-2.09,3.45-3.01,4.92,9.25-14.57,16.06-30.85,19.86-48.25.26-1.21.61-2.82.85-4.03-1.35,5.83-3.1,13.64-5.02,19.31"/></g><g class="cls-6"><path class="cls-2" d="M148.01.03c-12.4.24-21.27,2.16-27.75,3.56l-2.67.65-4.68,1.28C78.46,15.67,45.68,38.07,27.35,63.98c.55-.79,1.12-1.57,1.69-2.35,4.57-6.23,9.6-12.09,15.04-17.54,3.78-3.78,7.76-7.36,11.92-10.72C84.37,10.83,112.76,4.82,122.09,2.84c6.77-1.23,15.19-2.77,28.41-2.84-.75,0-1.74.01-2.49.03"/><path class="cls-7" d="M143.54.53c-11.19,1.69-20.78,7.3-28.89,12.42l-1.78,1.18-3.18,2.18C104.66,19.87-13.34,104.47,3.65,183.6c-.64-2.86-1.2-5.75-1.68-8.67-1.29-7.95-1.97-16.1-1.97-24.41,0-1.46.02-2.91.06-4.36C6.63,68.51,105.46,13.83,109.66,11.54c4.21-2.15,8.97-4.59,15.94-7.07l.37-.13C138.04.31,145.24.13,150.5,0c-1.96.05-4.19.11-6.96.53"/><path class="cls-1" d="M149.61,7.25c-.8,8.92-2.01,12.23-4.94,20.23l-.66,1.63-1.25,2.98c-27.1,61.61-85.92,103.28-106.34,169.09-6.31,20.34-6.11,49.8,30.7,74.65-1.86-1.24-3.7-2.53-5.5-3.85-6.23-4.57-12.09-9.6-17.54-15.04-1.61-1.61-3.18-3.26-4.72-4.94-21.7-25.05-24.88-49.25-10.98-83.53,22.71-55.99,71.05-93.54,102.85-143Q146.5.89,150.5,0q-.41,1.63-.89,7.25"/></g></g></g></g></g></svg>
